<svg xmlns="http://www.w3.org/2000/svg" x="0px" y="0px" width="100" height="100" viewBox="0,0,256,256">
<g fill="none" fill-rule="nonzero" stroke="none" stroke-width="none" stroke-linecap="butt" stroke-linejoin="none" stroke-miterlimit="10" stroke-dasharray="" stroke-dashoffset="0" font-family="none" font-weight="none" font-size="none" text-anchor="none" style="mix-blend-mode: normal"><path transform="scale(5.12,5.12)" d="M42.001,20.96l-0.001,23.096l-4.5,2.595l-1.5,0.866l-28,-16.166v-8.083l0.001,-15.012l6,-3.46l5.999,3.45642v-1.15042l2,-1.155l8,4.619l0.001,3.461l11.9974,6.9315l0.0026,-0.0015l0,0.003z" id="strokeMainSVG" fill="#000000" stroke="#000000" stroke-width="2" stroke-linejoin="round"></path><g transform="scale(5.12,5.12)" stroke="none" stroke-width="1" stroke-linejoin="miter"><path d="M42.001,20.96l-0.001,23.096l-6,3.46l-28,-16.165l0.001,-23.095l6,-3.46l6,3.457l-0.001,-1.151l2,-1.15l8,4.614l0.001,3.461z" fill="#e68f3a"></path><path d="M8,23.268l28,16.166v8.083l-28,-16.166z" fill="#f2973d"></path><path d="M8.001,8.256l-0.001,15.012l28,16.166l0.001,-15.013z" fill="#ff9f40"></path><path d="M42.001,20.957l-6,3.464l-0.001,23.096l6,-3.464z" fill="#b3702d"></path><path d="M28,17.495v-5.774l2,-1.155l0.001,5.774z" fill="#737373"></path><path d="M28,11.721l-8,-4.619l2,-1.155l8,4.619z" fill="#a8a8a8"></path><path d="M28,17.495l-2,-1.155v-3.464l-4,-2.31v3.464l-2,-1.154v-5.774l8,4.619z" fill="#cccccc"></path><path d="M22,14.03l2,-1.154v-1.155l-2,-1.155z" fill="#737373"></path><path d="M28,37.124v-3.464l1,-0.577v3.464z" fill="#737373"></path><path d="M26,35.97l2,1.154v-3.464l-2,-1.154z" fill="#cccccc"></path><path d="M27,31.928l2,1.155l-1,0.577l-2,-1.154z" fill="#a8a8a8"></path><path d="M15,29.619v-3.464l1,-0.578v3.464z" fill="#737373"></path><path d="M13,28.464l2,1.155v-3.464l-2,-1.155z" fill="#cccccc"></path><path d="M14,24.423l2,1.154l-1,0.578l-2,-1.155z" fill="#a8a8a8"></path></g></g>
</svg>